<svg viewBox="0 0 30 30" xmlns="http://www.w3.org/2000/svg">
    <path d="M15 2.5C8.096 2.5 2.5 8.096 2.5 15S8.096 27.5 15 27.5 27.5 21.904 27.5 15 21.904 2.5 15 2.5zM15 5c5.523 0 10 4.477 10 10a9.94 9.94 0 0 1-1.602 5.413l-.962-.745C20.496 18.172 16.921 17.5 15 17.5c-1.921 0-5.498.672-7.437 2.168l-.961.747A9.942 9.942 0 0 1 5 15C5 9.477 9.477 5 15 5zm0 2.188a4.067 4.067 0 0 0-4.063 4.062A4.067 4.067 0 0 0 15 15.313a4.067 4.067 0 0 0 4.063-4.063A4.067 4.067 0 0 0 15 7.187zm0 2.5c.861 0 1.563.7 1.563 1.562 0 .861-.702 1.563-1.563 1.563a1.565 1.565 0 0 1-1.563-1.563c0-.861.702-1.563 1.563-1.563zM15 20c3.876 0 5.96 1.46 6.936 2.192A9.958 9.958 0 0 1 15 25a9.958 9.958 0 0 1-6.936-2.808C9.04 21.461 11.124 20 15 20zm7.39 1.719c-.137.15-.274.302-.42.444.146-.141.282-.294.42-.444z"/>
</svg>
